<svg xmlns="http://www.w3.org/2000/svg" width="740" height="466" viewBox="0 0 740 466" font-family="Segoe UI, -apple-system, BlinkMacSystemFont, Helvetica, Arial, sans-serif">
<defs><filter id="cs" x="-20%" y="-20%" width="140%" height="140%"><feDropShadow dx="0" dy="1" stdDeviation="1.3" flood-color="#000" flood-opacity="0.1"/></filter></defs>
<rect width="740" height="466" fill="#ffffff"/>
<rect x="0" y="78.0" width="740" height="90.0" fill="#ffffff"/>
<line x1="0" y1="78.0" x2="740" y2="78.0" stroke="#e6e4e2"/>
<text x="574.0" y="127.5" font-size="13" font-weight="700" fill="#323130">Workload root</text>
<rect x="0" y="168.0" width="740" height="133.0" fill="#faf9f8"/>
<line x1="0" y1="168.0" x2="740" y2="168.0" stroke="#e6e4e2"/>
<text x="574.0" y="239.0" font-size="13" font-weight="700" fill="#323130">Business &amp; user flows</text>
<rect x="0" y="301.0" width="740" height="99.0" fill="#ffffff"/>
<line x1="0" y1="301.0" x2="740" y2="301.0" stroke="#e6e4e2"/>
<text x="574.0" y="346.5" font-size="13" font-weight="700" fill="#323130">Application</text>
<text x="574.0" y="363.5" font-size="13" font-weight="700" fill="#323130">components</text>
<line x1="0" y1="417.5" x2="740" y2="417.5" stroke="#e6e4e2"/>
<text x="40" y="34" font-size="18" font-weight="700" fill="#242424">Scenario 3: Hybrid link failover</text>
<text x="40" y="52" font-size="12" fill="#605e5c">Primary path Unhealthy, failover Healthy; the hybrid parent holds at Degraded.</text>
<text x="40.0" y="456.0" font-size="11.5" font-weight="600" fill="#605e5c">Legend</text>
<circle cx="99.7" cy="452.0" r="4.5" fill="#4c9a2a"/>
<text x="109.7" y="456.0" font-size="11.5" fill="#323130">Healthy</text>
<circle cx="165.5" cy="452.0" r="4.5" fill="#c26a00"/>
<text x="175.5" y="456.0" font-size="11.5" fill="#323130">Degraded</text>
<circle cx="243.0" cy="452.0" r="4.5" fill="#c50f18"/>
<text x="253.0" y="456.0" font-size="11.5" fill="#323130">Unhealthy</text>
<circle cx="321.8" cy="452.0" r="4.5" fill="#8a8886"/>
<text x="331.8" y="456.0" font-size="11.5" fill="#323130">Unknown</text>
<g transform="translate(390.7,445.0) scale(0.875)"><rect x="1.5" y="8" width="2.6" height="6" rx="0.6" fill="#8661c5"/><rect x="5.7" y="4.5" width="2.6" height="9.5" rx="0.6" fill="#0078D4"/><rect x="9.9" y="6.5" width="2.6" height="7.5" rx="0.6" fill="#3fb0ac"/></g>
<text x="408.7" y="456.0" font-size="11.5" fill="#323130">Metric</text>
<g transform="translate(40.0,0)">
<g fill="none" stroke-linecap="butt" stroke-linejoin="round">
<path d="M305.0 319.0 L305.0 244.0" stroke="#a0d8a0" stroke-width="1.7"/>
<path d="M260.5 186.0 L260.5 154.0" stroke="#db7500" stroke-width="1.7"/>
<path d="M131.5 319.0 L131.5 284.5 Q131.5 277.5 138.5 277.5 L143.5 277.5 Q150.5 277.5 150.5 270.5 L150.5 244.0" stroke="#ba0d16" stroke-width="1.6" stroke-dasharray="5 4"/>
</g>
<g stroke="none"><rect x="80.1" y="267.5" width="102.7" height="20" rx="10" fill="#ffffff" stroke="#d8d6d4" stroke-width="1"/><text x="131.5" y="281.1" font-size="10.5" font-weight="600" fill="#242424" text-anchor="middle">limited (failover)</text></g>
<g filter="url(#cs)"><rect x="0.0" y="319.0" width="263" height="67" rx="10" fill="#faeceb" stroke="#ba0d16" stroke-width="2"/></g><g transform="translate(6.0,326.16) scale(0.82)"><path d="M12 3.2l7.6 4.4v8.8L12 20.8l-7.6-4.4V7.6z" fill="none" stroke="#605e5c" stroke-width="1.6" stroke-linecap="round" stroke-linejoin="round"/><path d="M4.6 7.8l7.4 4.3 7.4-4.3M12 12.1v8.6" fill="none" stroke="#605e5c" stroke-width="1.6" stroke-linecap="round" stroke-linejoin="round"/></g><text x="34.0" y="339.5" font-size="12.5" font-weight="600" fill="#242424">Primary ExpressRoute</text><rect x="178.8" y="327.00" width="76.2" height="18" rx="9" fill="#ffffff" stroke="#ba0d16" stroke-width="1"/><circle cx="189.8" cy="336.0" r="6" fill="#c50f18"/><text x="198.8" y="339.57" font-size="10.5" fill="#323130">Unhealthy</text><line x1="1.0" y1="356.0" x2="262.0" y2="356.0" stroke="#e6e4e2"/><circle cx="16.0" cy="371.0" r="6" fill="#c50f18"/><g transform="translate(32.0,364.0) scale(0.875)"><rect x="1.5" y="8" width="2.6" height="6" rx="0.6" fill="#8661c5"/><rect x="5.7" y="4.5" width="2.6" height="9.5" rx="0.6" fill="#0078D4"/><rect x="9.9" y="6.5" width="2.6" height="7.5" rx="0.6" fill="#3fb0ac"/></g><text x="52.0" y="374.5" font-size="10.5" fill="#242424">BGP peer</text><text x="251.0" y="374.5" font-size="10.5" font-weight="600" fill="#c50f18" text-anchor="end">down</text>
<g filter="url(#cs)"><rect x="138.5" y="186.0" width="244" height="58" rx="10" fill="#fbf2e7" stroke="#db7500" stroke-width="2"/></g><g transform="translate(144.5,205.16) scale(0.82)"><path d="M12 3.2l7.6 4.4v8.8L12 20.8l-7.6-4.4V7.6z" fill="none" stroke="#605e5c" stroke-width="1.6" stroke-linecap="round" stroke-linejoin="round"/><path d="M4.6 7.8l7.4 4.3 7.4-4.3M12 12.1v8.6" fill="none" stroke="#605e5c" stroke-width="1.6" stroke-linecap="round" stroke-linejoin="round"/></g><text x="172.5" y="218.5" font-size="12.5" font-weight="600" fill="#242424">Hybrid connectivity</text><rect x="299.5" y="206.00" width="75.0" height="18" rx="9" fill="#ffffff" stroke="#db7500" stroke-width="1"/><circle cx="310.5" cy="215.0" r="6" fill="#c26a00"/><text x="319.5" y="218.57" font-size="10.5" fill="#323130">Degraded</text>
<g filter="url(#cs)"><rect x="293.0" y="319.0" width="193" height="67" rx="10" fill="#f2f8f2" stroke="#a0d8a0" stroke-width="2"/></g><g transform="translate(299.0,326.16) scale(0.82)"><path d="M12 3.2l7.6 4.4v8.8L12 20.8l-7.6-4.4V7.6z" fill="none" stroke="#605e5c" stroke-width="1.6" stroke-linecap="round" stroke-linejoin="round"/><path d="M4.6 7.8l7.4 4.3 7.4-4.3M12 12.1v8.6" fill="none" stroke="#605e5c" stroke-width="1.6" stroke-linecap="round" stroke-linejoin="round"/></g><text x="327.0" y="339.5" font-size="12.5" font-weight="600" fill="#242424">Failover VPN</text><rect x="413.7" y="327.00" width="64.3" height="18" rx="9" fill="#ffffff" stroke="#a0d8a0" stroke-width="1"/><circle cx="424.7" cy="336.0" r="6" fill="#4c9a2a"/><path d="M422.0 336.0 l1.9 1.9 l3.4 -3.9" fill="none" stroke="#ffffff" stroke-width="1.4" stroke-linecap="round" stroke-linejoin="round"/><text x="433.7" y="339.57" font-size="10.5" fill="#323130">Healthy</text><line x1="294.0" y1="356.0" x2="485.0" y2="356.0" stroke="#e6e4e2"/><circle cx="309.0" cy="371.0" r="6" fill="#4c9a2a"/><path d="M306.3 371.0 l1.9 1.9 l3.4 -3.9" fill="none" stroke="#ffffff" stroke-width="1.4" stroke-linecap="round" stroke-linejoin="round"/><g transform="translate(325.0,364.0) scale(0.875)"><rect x="1.5" y="8" width="2.6" height="6" rx="0.6" fill="#8661c5"/><rect x="5.7" y="4.5" width="2.6" height="9.5" rx="0.6" fill="#0078D4"/><rect x="9.9" y="6.5" width="2.6" height="7.5" rx="0.6" fill="#3fb0ac"/></g><text x="345.0" y="374.5" font-size="10.5" fill="#242424">VPN tunnel</text><text x="474.0" y="374.5" font-size="10.5" font-weight="400" fill="#605e5c" text-anchor="end">up</text>
<g filter="url(#cs)"><rect x="146.5" y="96.0" width="228" height="58" rx="10" fill="#fbf2e7" stroke="#db7500" stroke-width="2"/></g><g transform="translate(152.5,115.16) scale(0.82)"><path d="M12 3.2l7.6 4.4v8.8L12 20.8l-7.6-4.4V7.6z" fill="none" stroke="#605e5c" stroke-width="1.6" stroke-linecap="round" stroke-linejoin="round"/><path d="M4.6 7.8l7.4 4.3 7.4-4.3M12 12.1v8.6" fill="none" stroke="#605e5c" stroke-width="1.6" stroke-linecap="round" stroke-linejoin="round"/></g><text x="180.5" y="123.0" font-size="12.5" font-weight="600" fill="#242424">ahm-alz-platform</text><text x="180.5" y="135.0" font-size="9" fill="#605e5c">worstOf</text><rect x="291.5" y="116.00" width="75.0" height="18" rx="9" fill="#ffffff" stroke="#db7500" stroke-width="1"/><circle cx="302.5" cy="125.0" r="6" fill="#c26a00"/><text x="311.5" y="128.57" font-size="10.5" fill="#323130">Degraded</text>
</g></svg>