<svg xmlns="http://www.w3.org/2000/svg" width="670" height="423" viewBox="0 0 670 423" font-family="Segoe UI, -apple-system, BlinkMacSystemFont, Helvetica, Arial, sans-serif">
<defs><filter id="cs" x="-20%" y="-20%" width="140%" height="140%"><feDropShadow dx="0" dy="1" stdDeviation="1.3" flood-color="#000" flood-opacity="0.1"/></filter></defs>
<rect width="670" height="423" fill="#ffffff"/>
<rect x="0" y="78.0" width="670" height="90.0" fill="#ffffff"/>
<line x1="0" y1="78.0" x2="670" y2="78.0" stroke="#e6e4e2"/>
<text x="503.7" y="127.5" font-size="13" font-weight="700" fill="#323130">Workload root</text>
<rect x="0" y="168.0" width="670" height="90.0" fill="#faf9f8"/>
<line x1="0" y1="168.0" x2="670" y2="168.0" stroke="#e6e4e2"/>
<text x="503.7" y="217.5" font-size="13" font-weight="700" fill="#323130">Business &amp; user flows</text>
<rect x="0" y="258.0" width="670" height="99.0" fill="#ffffff"/>
<line x1="0" y1="258.0" x2="670" y2="258.0" stroke="#e6e4e2"/>
<text x="503.7" y="303.5" font-size="13" font-weight="700" fill="#323130">Application</text>
<text x="503.7" y="320.5" font-size="13" font-weight="700" fill="#323130">components</text>
<line x1="0" y1="374.5" x2="670" y2="374.5" stroke="#e6e4e2"/>
<text x="40" y="34" font-size="18" font-weight="700" fill="#242424">Scenario 2: SNAT exhaustion edge</text>
<text x="40" y="52" font-size="12" fill="#605e5c">A connectivity edge signal exceeds the AMBA baseline SNAT threshold and degrades the branch.</text>
<text x="40.0" y="413.0" font-size="11.5" font-weight="600" fill="#605e5c">Legend</text>
<circle cx="99.7" cy="409.0" r="4.5" fill="#4c9a2a"/>
<text x="109.7" y="413.0" font-size="11.5" fill="#323130">Healthy</text>
<circle cx="165.5" cy="409.0" r="4.5" fill="#c26a00"/>
<text x="175.5" y="413.0" font-size="11.5" fill="#323130">Degraded</text>
<circle cx="243.0" cy="409.0" r="4.5" fill="#c50f18"/>
<text x="253.0" y="413.0" font-size="11.5" fill="#323130">Unhealthy</text>
<circle cx="321.8" cy="409.0" r="4.5" fill="#8a8886"/>
<text x="331.8" y="413.0" font-size="11.5" fill="#323130">Unknown</text>
<g transform="translate(390.7,402.0) scale(0.875)"><rect x="1.5" y="8" width="2.6" height="6" rx="0.6" fill="#8661c5"/><rect x="5.7" y="4.5" width="2.6" height="9.5" rx="0.6" fill="#0078D4"/><rect x="9.9" y="6.5" width="2.6" height="7.5" rx="0.6" fill="#3fb0ac"/></g>
<text x="408.7" y="413.0" font-size="11.5" fill="#323130">Metric</text>
<g transform="translate(40.0,0)">
<g fill="none" stroke-linecap="butt" stroke-linejoin="round">
<path d="M116.7 276.0 L116.7 244.0" stroke="#db7500" stroke-width="1.7"/>
<path d="M259.7 186.0 L259.7 154.0" stroke="#a0d8a0" stroke-width="1.7"/>
<path d="M205.7 186.0 L205.7 154.0" stroke="#db7500" stroke-width="1.7"/>
</g>
<g filter="url(#cs)"><rect x="0.0" y="276.0" width="250" height="67" rx="10" fill="#fbf2e7" stroke="#db7500" stroke-width="2"/></g><g transform="translate(6.0,283.16) scale(0.82)"><path d="M12 3.2l7.6 4.4v8.8L12 20.8l-7.6-4.4V7.6z" fill="none" stroke="#605e5c" stroke-width="1.6" stroke-linecap="round" stroke-linejoin="round"/><path d="M4.6 7.8l7.4 4.3 7.4-4.3M12 12.1v8.6" fill="none" stroke="#605e5c" stroke-width="1.6" stroke-linecap="round" stroke-linejoin="round"/></g><text x="34.0" y="296.5" font-size="12.5" font-weight="600" fill="#242424">Internet egress edge</text><rect x="167.0" y="284.00" width="75.0" height="18" rx="9" fill="#ffffff" stroke="#db7500" stroke-width="1"/><circle cx="178.0" cy="293.0" r="6" fill="#c26a00"/><text x="187.0" y="296.57" font-size="10.5" fill="#323130">Degraded</text><line x1="1.0" y1="313.0" x2="249.0" y2="313.0" stroke="#e6e4e2"/><circle cx="16.0" cy="328.0" r="6" fill="#c26a00"/><g transform="translate(32.0,321.0) scale(0.875)"><rect x="1.5" y="8" width="2.6" height="6" rx="0.6" fill="#8661c5"/><rect x="5.7" y="4.5" width="2.6" height="9.5" rx="0.6" fill="#0078D4"/><rect x="9.9" y="6.5" width="2.6" height="7.5" rx="0.6" fill="#3fb0ac"/></g><text x="52.0" y="331.5" font-size="10.5" fill="#242424">SNAT port utilization</text><text x="238.0" y="331.5" font-size="10.5" font-weight="600" fill="#c26a00" text-anchor="end">91%</text>
<g filter="url(#cs)"><rect x="15.7" y="186.0" width="202" height="58" rx="10" fill="#fbf2e7" stroke="#db7500" stroke-width="2"/></g><g transform="translate(21.7,205.16) scale(0.82)"><path d="M12 3.2l7.6 4.4v8.8L12 20.8l-7.6-4.4V7.6z" fill="none" stroke="#605e5c" stroke-width="1.6" stroke-linecap="round" stroke-linejoin="round"/><path d="M4.6 7.8l7.4 4.3 7.4-4.3M12 12.1v8.6" fill="none" stroke="#605e5c" stroke-width="1.6" stroke-linecap="round" stroke-linejoin="round"/></g><text x="49.7" y="218.5" font-size="12.5" font-weight="600" fill="#242424">Connectivity</text><rect x="134.7" y="206.00" width="75.0" height="18" rx="9" fill="#ffffff" stroke="#db7500" stroke-width="1"/><circle cx="145.7" cy="215.0" r="6" fill="#c26a00"/><text x="154.7" y="218.57" font-size="10.5" fill="#323130">Degraded</text>
<g filter="url(#cs)"><rect x="110.2" y="96.0" width="228" height="58" rx="10" fill="#fbf2e7" stroke="#db7500" stroke-width="2"/></g><g transform="translate(116.2,115.16) scale(0.82)"><path d="M12 3.2l7.6 4.4v8.8L12 20.8l-7.6-4.4V7.6z" fill="none" stroke="#605e5c" stroke-width="1.6" stroke-linecap="round" stroke-linejoin="round"/><path d="M4.6 7.8l7.4 4.3 7.4-4.3M12 12.1v8.6" fill="none" stroke="#605e5c" stroke-width="1.6" stroke-linecap="round" stroke-linejoin="round"/></g><text x="144.2" y="123.0" font-size="12.5" font-weight="600" fill="#242424">ahm-alz-platform</text><text x="144.2" y="135.0" font-size="9" fill="#605e5c">worstOf</text><rect x="255.2" y="116.00" width="75.0" height="18" rx="9" fill="#ffffff" stroke="#db7500" stroke-width="1"/><circle cx="266.2" cy="125.0" r="6" fill="#c26a00"/><text x="275.2" y="128.57" font-size="10.5" fill="#323130">Degraded</text>
<g filter="url(#cs)"><rect x="247.7" y="186.0" width="168" height="58" rx="10" fill="#f2f8f2" stroke="#a0d8a0" stroke-width="2"/></g><g transform="translate(253.7,205.16) scale(0.82)"><path d="M12 3l7 2.6v5.2c0 4.6-3 7.9-7 9.2-4-1.3-7-4.6-7-9.2V5.6z" fill="none" stroke="#605e5c" stroke-width="1.6" stroke-linecap="round" stroke-linejoin="round"/><path d="M8.8 12.2l2.2 2.2 4-4.6" fill="none" stroke="#605e5c" stroke-width="1.6" stroke-linecap="round" stroke-linejoin="round"/></g><text x="281.7" y="218.5" font-size="12.5" font-weight="600" fill="#242424">Security</text><rect x="343.4" y="206.00" width="64.3" height="18" rx="9" fill="#ffffff" stroke="#a0d8a0" stroke-width="1"/><circle cx="354.4" cy="215.0" r="6" fill="#4c9a2a"/><path d="M351.7 215.0 l1.9 1.9 l3.4 -3.9" fill="none" stroke="#ffffff" stroke-width="1.4" stroke-linecap="round" stroke-linejoin="round"/><text x="363.4" y="218.57" font-size="10.5" fill="#323130">Healthy</text>
</g></svg>